<?xml version="1.0" standalone="no"?>
<!DOCTYPE svg PUBLIC "-//W3C//DTD SVG 20010904//EN"
 "http://www.w3.org/TR/2001/REC-SVG-20010904/DTD/svg10.dtd">
<svg version="1.0" xmlns="http://www.w3.org/2000/svg"
 width="260.000000pt" height="260.000000pt" viewBox="0 0 260.000000 260.000000"
 preserveAspectRatio="xMidYMid meet">
<metadata>
Created by potrace 1.11, written by Peter Selinger 2001-2013
</metadata>
<g transform="translate(0.000000,260.000000) scale(0.100000,-0.100000)"
fill="#000000" stroke="none">
<path d="M0 1300 l0 -1300 1300 0 1300 0 0 1300 0 1300 -1300 0 -1300 0 0
-1300z m1806 1089 l155 -62 -3 -151 -3 -151 -267 -3 -268 -2 0 35 0 35 -150 0
-150 0 0 -498 0 -497 145 -72 c79 -40 146 -69 149 -65 2 4 5 71 5 149 l2 142
-83 3 -83 3 -3 178 -2 177 355 0 355 0 0 -715 c0 -630 2 -720 16 -746 15 -30
14 -30 -98 30 -62 33 -369 197 -683 364 l-570 304 -5 765 -5 765 -43 37 -44
36 562 0 562 0 154 -61z"/>
</g>
</svg>
